#!OML:ASF F:\VICON\USERDATA\Patient Classification 1\PLAYGROUND\JustinFriday\JustinFriday.ASF
:FULLY-SPECIFIED
:DEGREES
529
root 4.13516 17.4706 -16.1493 -181.904 -127.975 178.295
lowerback 9.6442 0.297509 0.980073
upperback 3.31443 0.46837 1.75626
thorax -1.97244 0.202361 1.21276
lowerneck -4.57706 4.38261 1.18963
upperneck 3.16057 5.95429 -4.25576
head 1.95631 2.88034 -1.3596
rclavicle -3.0911e-014 -1.98785e-015
rhumerus -19.5558 11.0759 -76.0424
rradius 111.405
rwrist 178.895
rhand -31.044 17.005
rfingers 7.12502
rthumb -4.32559 -12.9308
lclavicle -3.0911e-014 -1.98785e-015
lhumerus 10.3722 2.83074 62.6921
lradius 87.1985
lwrist -22.9039
lhand -17.9518 0.346597
lfingers 7.12502
lthumb 8.31686 30.1629
rfemur -26.0108 5.29182 14.4609
rtibia 47.6875
rfoot -7.82671 -15.8038
rtoes -1.34068
lfemur -1.79735 -4.21893 -26.979
ltibia 30.6573
lfoot -18.1337 -9.92848
ltoes 1.74165
530
root 4.06209 17.4766 -16.1149 -181.549 -129.65 177.875
lowerback 9.74434 0.525537 1.99954
upperback 3.41129 0.855263 1.28314
thorax -1.90921 0.40106 0.10709
lowerneck -6.44668 3.62657 3.16577
upperneck 4.32083 4.8507 -4.86092
head 2.73981 2.30932 -1.91779
rclavicle 3.34952e-014 -1.35174e-014
rhumerus -18.2784 10.3978 -76.1719
rradius 111.351
rwrist 179.192
rhand -30.1707 17.619
rfingers 7.12502
rthumb -3.4823 -12.3323
lclavicle 3.34952e-014 -1.35174e-014
lhumerus 13.0661 2.02113 61.8439
lradius 85.0218
lwrist -23.189
lhand -19.4054 0.0766997
lfingers 7.12502
lthumb 6.9138 29.9438
rfemur -25.9789 5.27853 14.6606
rtibia 45.5195
rfoot -8.09903 -16.3748
rtoes -0.0580202
lfemur -1.5207 -5.35973 -26.6581
ltibia 30.6619
lfoot -18.3589 -10.0276
ltoes 0.805605
531
root 3.98947 17.4851 -16.093 -181.255 -131.223 177.701
lowerback 10.1445 0.631553 1.97554
upperback 3.19485 1.01443 1.26032
thorax -2.35163 0.477862 0.0728086
lowerneck -7.77137 3.21416 4.75669
upperneck 5.44253 4.20625 -5.74416
head 3.43186 1.96524 -2.53624
rclavicle -2.01269e-014 -1.66979e-014
rhumerus -17.2791 10.9544 -75.7377
rradius 111.599
rwrist 179.126
rhand -28.5536 18.3703
rfingers 7.12502
rthumb -1.92057 -11.6008
lclavicle -2.01269e-014 -1.66979e-014
lhumerus 14.0774 1.64002 61.0032
lradius 83.3705
lwrist -23.1551
lhand -20.9408 -0.381768
lfingers 7.12502
lthumb 5.4315 29.5286
rfemur -26.1004 5.39423 14.6948
rtibia 43.3395
rfoot -8.77777 -16.6386
rtoes 2.69501
lfemur -1.46171 -6.223 -26.3615
ltibia 30.6809
lfoot -18.353 -10.8171
ltoes 0.89775
532
root 3.91531 17.4848 -16.0861 -181.043 -132.766 177.783
lowerback 10.3972 -0.00514681 1.34199
upperback 2.88577 0.144266 1.92813
thorax -2.82574 0.0430291 1.22636
lowerneck -7.87747 3.44919 3.02815
upperneck 5.91266 4.71073 -5.57609
head 3.5771 2.17357 -2.12995
rclavicle -4.40308e-014 1.15295e-014
rhumerus -15.4563 13.901 -74.3942
rradius 111.395
rwrist 179.243
rhand -22.5623 13.8166
rfingers 7.12502
rthumb 3.86575 -16.1281
lclavicle -4.40308e-014 1.15295e-014
lhumerus 14.8432 4.33984 61.4467
lradius 81.4507
lwrist -23.94
lhand -21.1989 -1.07479
lfingers 7.12502
lthumb 5.1823 28.8418
rfemur -26.3373 5.51062 14.5643
rtibia 41.1766
rfoot -9.40565 -16.9526
rtoes 4.31891
lfemur -1.69408 -5.98466 -25.9005
ltibia 30.7695
lfoot -18.3585 -13.001
ltoes 2.56976
533
root 3.83185 17.486 -16.0495 -180.975 -133.908 177.773
lowerback 10.244 0.474606 2.03315
upperback 3.37059 0.811727 1.32195
thorax -2.22648 0.378166 0.128369
lowerneck -10.139 2.85312 4.14645
upperneck 7.01584 3.7685 -5.67768
head 3.93474 1.67425 -2.16967
rclavicle -2.92213e-014 -4.37326e-015
rhumerus -12.693 12.8696 -75.2527
rradius 110.666
rwrist 181.008
rhand -30.0621 19.4349
rfingers 7.12502
rthumb -3.37747 -10.5181
lclavicle -2.92213e-014 -4.37326e-015
lhumerus 18.6044 3.70897 60.8688
lradius 79.288
lwrist -24.0669
lhand -21.1097 -1.77251
lfingers 7.12502
lthumb 5.26844 28.142
rfemur -26.3523 5.83972 14.4764
rtibia 39.0444
rfoot -9.29839 -17.4992
rtoes 2.48017
lfemur -1.55033 -6.2921 -25.7199
ltibia 30.8414
lfoot -18.3854 -13.9419
ltoes 3.87074
534
root 3.74808 17.4856 -16.0169 -180.907 -135.144 177.818
lowerback 10.4743 0.429926 1.78782
upperback 3.17087 0.748291 1.49918
thorax -2.56699 0.344449 0.454708
lowerneck -10.1809 2.74572 3.93915
upperneck 7.28578 3.67489 -5.80212
head 4.01812 1.61212 -2.1797
rclavicle -6.87795e-014 1.70955e-014
rhumerus -11.5301 13.6352 -73.6045
rradius 111.469
rwrist 179.788
rhand -29.9929 18.5413
rfingers 7.12502
rthumb -3.31059 -11.4127
lclavicle -6.87795e-014 1.70955e-014
lhumerus 19.7181 4.1178 60.4228
lradius 77.4866
lwrist -24.0551
lhand -20.8273 -2.04953
lfingers 7.12502
lthumb 5.54107 27.858
rfemur -26.4297 6.10616 14.3732
rtibia 37.0191
rfoot -9.09367 -18.2955
rtoes 0.0826109
lfemur -1.42103 -6.70274 -25.5427
ltibia 30.8819
lfoot -18.4512 -14.849
ltoes 4.61857
535
root 3.66561 17.4815 -15.9837 -180.836 -136.316 177.807
lowerback 10.7614 0.372695 1.63633
upperback 3.03017 0.67509 1.64671
thorax -2.87499 0.306935 0.699981
lowerneck -9.80998 2.71223 3.67703
upperneck 6.96149 3.66836 -5.87272
head 3.855 1.60698 -2.16381
rclavicle 7.95139e-015 3.57812e-015
rhumerus -9.36954 14.7468 -72.8478
rradius 110.977
rwrist 180.117
rhand -30.5373 17.5253
rfingers 7.12502
rthumb -3.83632 -12.4199
lclavicle 7.95139e-015 3.57812e-015
lhumerus 20.7927 4.44922 60.0352
lradius 75.6794
lwrist -23.9473
lhand -20.899 -1.82016
lfingers 7.12502
lthumb 5.47183 28.0892
rfemur -26.5149 6.15149 14.3593
rtibia 35.1097
rfoot -9.47276 -18.8527
rtoes -1.13854
lfemur -1.19338 -7.13704 -25.3447
ltibia 30.8086
lfoot -18.6237 -15.4964
ltoes 4.31513
